<?xml version="1.0" encoding="UTF-8"?>
<svg version="1.1" xmlns="http://www.w3.org/2000/svg" width="512" height="486">
<path d="M0 0 C0.93840036 -0.00367669 1.87680073 -0.00735338 2.84363747 -0.01114148 C5.99008352 -0.02215997 9.13649654 -0.02601908 12.28295898 -0.02983093 C14.53843795 -0.03609705 16.79391589 -0.04274398 19.0493927 -0.04974365 C26.45927208 -0.07077172 33.86915164 -0.08114602 41.27905273 -0.09111023 C43.83229585 -0.09515849 46.38553885 -0.09927543 48.93878174 -0.10346031 C59.56239534 -0.12032819 70.18600682 -0.1349619 80.80963135 -0.14220905 C83.56424969 -0.14411875 86.31886802 -0.14603911 89.07348633 -0.147995 C89.7580808 -0.14847874 90.44267527 -0.14896248 91.14801502 -0.14946087 C102.22582624 -0.15775248 113.30352918 -0.18307578 124.38129318 -0.21557567 C135.77091551 -0.24871628 147.16046359 -0.26633192 158.55014133 -0.26985329 C164.93837659 -0.27220033 171.32644067 -0.2811158 177.71463013 -0.30631447 C183.72946537 -0.32965693 189.74401748 -0.33380344 195.75888634 -0.32355309 C197.95941804 -0.32305909 200.15996398 -0.32933892 202.36045265 -0.34310913 C221.37496671 -0.45538369 235.9715808 1.81908908 250.46655273 15.33467102 C261.45506062 26.89426623 265.89857235 40.46817749 265.83007812 56.09004211 C265.83022415 56.96873962 265.83037018 57.84743713 265.83052063 58.75276184 C265.82982687 61.64206963 265.82205964 64.53131206 265.81420898 67.42060852 C265.8123429 69.42985499 265.8109199 71.43910191 265.80992126 73.448349 C265.80611109 78.725492 265.79629363 84.00260729 265.78521729 89.27973938 C265.77497089 94.66913986 265.77041673 100.05854484 265.76538086 105.44795227 C265.75467 116.01437067 265.73761162 126.58076854 265.71655273 137.14717102 C266.82862783 137.14302295 266.82862783 137.14302295 267.9631691 137.13879108 C286.04306059 137.0723981 304.12292759 137.02282584 322.20291519 136.9917345 C330.94643801 136.97629747 339.6898792 136.95526878 348.43334961 136.92085266 C356.05846011 136.89085307 363.68351146 136.87157305 371.30867934 136.86490554 C375.34225653 136.86101108 379.37566459 136.85192535 383.40918732 136.82998085 C387.21440377 136.80944839 391.01938322 136.80337063 394.82464981 136.80784798 C396.21287199 136.8070302 397.60110302 136.80116506 398.98927689 136.7895546 C415.83146865 136.65573231 431.3309986 140.57827784 443.71655273 152.45967102 C456.2284516 165.96370284 459.33221848 180.37243571 459.23413086 198.29756165 C459.23956375 199.98280437 459.2466929 201.66804234 459.25537109 203.35327148 C459.27346884 207.89260646 459.26659349 212.43157418 459.25385475 216.97091484 C459.24365628 221.74407238 459.2531393 226.51720059 459.25939941 231.2903595 C459.26665602 239.30274543 459.25714049 247.31498339 459.23803711 255.3273468 C459.21627222 264.56206131 459.223325 273.79642245 459.24534273 283.03112841 C459.26355358 290.99079405 459.26602738 298.95035394 459.25558805 306.9100337 C459.24938426 311.65045931 459.248431 316.39071937 459.26173401 321.13113403 C459.27337507 325.5899676 459.26511778 330.04835004 459.24215698 334.50713539 C459.23691363 336.1335863 459.23830767 337.76007584 459.24720764 339.38651085 C459.33356694 356.78596974 455.13335949 370.26504878 443.27905273 383.33467102 C434.24244666 391.9982062 421.31629413 398.14717102 408.71655273 398.14717102 C408.66756836 398.98377258 408.61858398 399.82037415 408.56811523 400.68232727 C408.14989869 407.19352617 407.61203723 413.66868052 406.84155273 420.14717102 C406.62885742 421.94154602 406.62885742 421.94154602 406.41186523 423.77217102 C404.79657536 431.61267919 400.28059753 436.77114116 393.71655273 441.14717102 C390.58346085 442.19153498 388.07379101 442.48742613 384.77905273 442.64717102 C383.7387793 442.71935852 382.69850586 442.79154602 381.62670898 442.86592102 C368.33734016 440.42311996 355.1262549 428.11275489 344.15405273 420.64717102 C341.28158114 418.69634159 338.40833777 416.74666651 335.53395081 414.79866028 C333.75841404 413.59499442 331.98401796 412.38964329 330.21104431 411.1822052 C328.5506012 410.05517528 326.87962518 408.94351088 325.19859314 407.84742737 C322.71655273 406.14717102 322.71655273 406.14717102 320.43580627 404.19642639 C311.16981647 396.89257461 300.39954822 398.22206395 289.18920898 398.35029602 C286.99164794 398.34852563 284.79408719 398.34323641 282.59654236 398.33460999 C276.83219982 398.31940814 271.06873835 398.34310882 265.30450439 398.37782288 C256.08467329 398.42842253 246.8648814 398.42657311 237.64495659 398.4114151 C234.44322885 398.41276791 231.24216205 398.43502774 228.0405426 398.4599762 C209.08193739 398.53126714 193.47739749 395.71348196 179.25952148 381.96748352 C165.33780573 366.52742396 164.10791036 349.57142905 164.32592773 329.77607727 C164.33340651 327.75727911 164.33909168 325.7384736 164.34307861 323.71966553 C164.35820625 318.45725252 164.39737409 313.19529514 164.44189453 307.93305969 C164.48312802 302.54290425 164.50114905 297.15267376 164.52124023 291.7624054 C164.56388327 281.22379593 164.63197474 270.68552166 164.71655273 260.14717102 C145.38732522 258.83214096 134.23894152 263.45057016 118.96655273 274.89717102 C117.17715103 276.18469512 115.38417872 277.46727151 113.58764648 278.74482727 C110.04139024 281.27224998 106.51076412 283.81950687 102.98803711 286.3795929 C97.66805409 290.21476781 92.24861141 293.88112749 86.76342773 297.47529602 C85.94183167 298.01966309 85.1202356 298.56403015 84.27374268 299.12489319 C77.37394357 303.5985394 71.0509125 306.40468277 62.71655273 305.14717102 C55.95318011 303.04573096 51.39323123 299.77021574 47.82592773 293.62763977 C44.50143429 286.19435337 44.46065716 277.76786745 43.66967773 269.76045227 C43.53166748 268.37146729 43.53166748 268.37146729 43.39086914 266.954422 C43.16550318 264.68539656 42.94074714 262.41631247 42.71655273 260.14717102 C42.07921204 260.15605347 41.44187134 260.16493591 40.78521729 260.17408752 C34.10080003 260.2631655 27.41655371 260.3231542 20.73168945 260.36689758 C18.24301291 260.38690769 15.75438275 260.41412445 13.26586914 260.44892883 C9.67118829 260.49791446 6.07713361 260.52024686 2.48217773 260.53779602 C0.83611542 260.56876373 0.83611542 260.56876373 -0.84320068 260.60035706 C-14.58269893 260.60427241 -27.97138933 255.32114571 -38.09594727 245.89717102 C-47.17355144 236.00036842 -53.38502749 223.62446046 -53.43061829 210.14118958 C-53.43429497 209.43570055 -53.43797166 208.73021153 -53.44175977 208.00334406 C-53.45277318 205.6391696 -53.45663651 203.27503914 -53.46044922 200.9108429 C-53.46671583 199.21545778 -53.4733628 197.52007403 -53.48036194 195.82469177 C-53.50138792 190.25511122 -53.51176556 184.68553045 -53.52172852 179.11592102 C-53.52577715 177.19569891 -53.5298941 175.27547694 -53.5340786 173.35525513 C-53.55313005 164.32959301 -53.56735904 155.30393906 -53.57569057 146.27826071 C-53.58545172 135.87663138 -53.6117421 125.47521549 -53.65219146 115.07366133 C-53.682414 107.02420104 -53.69716541 98.97480171 -53.70047158 90.92528582 C-53.7028158 86.12268124 -53.71169364 81.32030468 -53.73693275 76.51776123 C-53.76032495 71.99344397 -53.7644022 67.46950305 -53.75417137 62.94514084 C-53.75367854 61.29245624 -53.75992379 59.63975242 -53.77372742 57.9871254 C-53.90939562 40.76864374 -49.42367442 27.05489686 -37.54516602 14.24873352 C-26.86222504 4.32227024 -14.28866271 -0.00300932 0 0 Z M-25.81860352 35.16670227 C-29.80682804 41.2478726 -31.53050918 46.77849402 -31.5508728 54.10340881 C-31.55540392 54.7793494 -31.55993503 55.45528998 -31.56460345 56.15171361 C-31.57720617 58.40385077 -31.57562978 60.65574482 -31.57397461 62.90791321 C-31.57996252 64.52802337 -31.58676867 66.14813067 -31.59432983 67.76823425 C-31.6119721 72.1609876 -31.61668452 76.55366298 -31.61796141 80.94644833 C-31.61938477 83.69406122 -31.62365793 86.4416544 -31.62895584 89.18926239 C-31.64745152 98.78396865 -31.65562719 108.3786194 -31.65405273 117.9733429 C-31.65285204 126.9017794 -31.67394137 135.82997389 -31.70554006 144.75834918 C-31.73173857 152.43585681 -31.74241851 160.11328557 -31.74114192 167.79083753 C-31.74063326 172.37089122 -31.74626297 176.95072985 -31.76749802 181.53073883 C-31.78694031 185.84169872 -31.78696421 190.15223974 -31.77246475 194.46321487 C-31.77038283 196.03933198 -31.77504056 197.61547571 -31.78718567 199.19154739 C-31.87318061 211.13093755 -30.5804631 220.4837428 -22.13891602 229.39326477 C-12.85862541 238.16558157 -4.1527642 238.44932785 8.25952148 238.52607727 C9.67484153 238.5422751 11.09015062 238.55945745 12.50544739 238.57757568 C16.21425297 238.62305309 19.92307374 238.65796803 23.63201904 238.68977356 C29.5781213 238.74184688 35.52406228 238.80694785 41.46996498 238.87798882 C43.54166347 238.90074383 45.6133416 238.91706054 47.68510437 238.93270874 C48.94353653 238.94619858 50.20196869 238.95968842 51.49853516 238.97358704 C52.6054924 238.98309891 53.71244965 238.99261078 54.85295105 239.00241089 C57.31273652 239.1267574 59.3707803 239.43508493 61.71655273 240.14717102 C63.48951862 248.0344366 64.45054254 255.92443724 65.27905273 263.95967102 C65.52834725 266.34139242 65.77957384 268.72291258 66.03295898 271.10420227 C66.14067627 272.14552307 66.24839355 273.18684387 66.359375 274.25971985 C66.68940259 276.92768726 67.15056248 279.52028728 67.71655273 282.14717102 C73.12967064 279.35992874 78.24758682 276.19464435 83.29467773 272.79560852 C83.93629349 272.36574646 84.57790924 271.9358844 85.2389679 271.49299622 C86.64595697 270.55027615 88.0524557 269.60682395 89.45852661 268.66273499 C96.06274694 264.23005006 102.67778124 259.81346144 109.29101562 255.39424133 C111.05326848 254.21600332 112.81497545 253.03694851 114.57617188 251.85713196 C117.15668305 250.12873226 119.73914991 248.40329075 122.32202148 246.67842102 C123.10739792 246.15139587 123.89277435 245.62437073 124.70195007 245.08137512 C125.4340419 244.59326355 126.16613373 244.10515198 126.92041016 243.60224915 C127.55911545 243.17496521 128.19782074 242.74768127 128.85588074 242.30744934 C133.30943808 239.53029891 136.35677278 238.86818238 141.66967773 238.73310852 C142.66001007 238.7040593 142.66001007 238.7040593 143.67034912 238.67442322 C145.76895426 238.61487753 147.86761502 238.5683438 149.96655273 238.52217102 C151.39365934 238.48396808 152.82074345 238.444915 154.24780273 238.40498352 C157.73717964 238.30919772 161.22672559 238.2250746 164.71655273 238.14717102 C164.72241898 237.49730225 164.72828522 236.84743347 164.73432922 236.1778717 C164.7986742 229.36332642 164.88319599 222.5492356 164.97900391 215.73506165 C165.01208882 213.19801354 165.0401709 210.66089474 165.06298828 208.12373352 C165.09683758 204.45936688 165.14916838 200.79563866 165.20483398 197.13154602 C165.21122391 196.01229736 165.21761383 194.89304871 165.22419739 193.73988342 C165.51295396 177.98175197 170.19868825 163.90397215 181.23999023 152.40107727 C191.90783693 142.6923272 204.93858586 138.22862826 219.20483398 137.83076477 C219.90803268 137.80998367 220.61123138 137.78920258 221.33573914 137.76779175 C223.5667509 137.70276987 225.79787342 137.64363326 228.02905273 137.58467102 C229.54794408 137.54144066 231.0668245 137.49782497 232.58569336 137.45381165 C236.29586393 137.34713768 240.00615695 137.24573881 243.71655273 137.14717102 C243.76299468 126.08961808 243.79848209 115.03208854 243.82017708 103.97445774 C243.83059217 98.83936671 243.84470972 93.70434265 243.86743164 88.56929016 C243.88924126 83.60909305 243.90113845 78.64896017 243.90630722 73.6887188 C243.90998843 71.80099922 243.91717678 69.91328296 243.92801285 68.0255909 C243.94263578 65.37146162 243.94452619 62.71759418 243.94360352 60.06343079 C243.95079407 59.29162476 243.95798462 58.51981873 243.96539307 57.72462463 C243.92575493 47.11358312 241.30267141 37.74378992 233.63842773 30.06513977 C225.93587484 23.66878903 218.06943828 21.68873677 208.19764709 21.75949097 C207.2822972 21.75410543 206.36694731 21.74871989 205.42385954 21.74317116 C202.37943849 21.72894863 199.33545576 21.73598119 196.29101562 21.74311829 C194.09904127 21.73741176 191.90706988 21.73044641 189.71510315 21.72232056 C183.77709451 21.70440585 177.83923378 21.70555435 171.90120625 21.71126294 C166.93848595 21.71435706 161.97579395 21.70825988 157.01307768 21.7022242 C144.63441646 21.68738439 132.2558275 21.69098779 119.87716758 21.7030875 C109.14352863 21.71301915 98.41006208 21.70007724 87.67644972 21.67615331 C76.63587601 21.65173193 65.5953864 21.64256103 54.55478662 21.64880604 C48.36402116 21.65217353 42.17339814 21.64977407 35.98265266 21.63255501 C30.16062537 21.61706759 24.33892685 21.62106171 18.51691246 21.63986015 C16.38446744 21.64354093 14.25199796 21.64045254 12.1195755 21.62997437 C9.2001549 21.61672799 6.28181694 21.62834446 3.36244202 21.64596558 C2.52613709 21.63636057 1.68983216 21.62675556 0.82818466 21.6168595 C-10.07867457 21.75156575 -19.23205786 26.501959 -25.81860352 35.16670227 Z M292.71655273 192.14717102 C291.83908383 228.52731039 293.79958276 263.22945474 299.71655273 299.14717102 C303.69570432 299.17604086 307.67482927 299.19392508 311.65405273 299.20967102 C313.35851562 299.22223938 313.35851562 299.22223938 315.09741211 299.23506165 C316.17700195 299.2382843 317.2565918 299.24150696 318.36889648 299.24482727 C319.36912842 299.25006409 320.36936035 299.2553009 321.39990234 299.26069641 C323.67862501 299.40898197 323.67862501 299.40898197 324.71655273 298.14717102 C325.01471242 296.74104583 325.25579158 295.32274494 325.47265625 293.90180969 C325.61269073 292.98678177 325.75272522 292.07175385 325.89700317 291.1289978 C326.71592576 285.53410424 327.51420754 279.93724118 328.27905273 274.33467102 C328.44229034 273.1424292 328.60552795 271.95018738 328.77371216 270.72181702 C332.28015225 244.4723052 332.4028877 218.57651411 331.71655273 192.14717102 C318.84655273 192.14717102 305.97655273 192.14717102 292.71655273 192.14717102 Z M300.71655273 318.14717102 C300.71655273 325.40717102 300.71655273 332.66717102 300.71655273 340.14717102 C308.30655273 340.14717102 315.89655273 340.14717102 323.71655273 340.14717102 C323.71655273 332.88717102 323.71655273 325.62717102 323.71655273 318.14717102 C316.12655273 318.14717102 308.53655273 318.14717102 300.71655273 318.14717102 Z " fill="#000000" transform="translate(53.283447265625,42.85282897949219)"/>
<path d="M0 0 C1.46373152 0.21564729 2.92786434 0.42858386 4.39233398 0.63916016 C8.3537561 1.22263129 12.30325867 1.86384426 16.25170898 2.52905273 C18.72027149 2.94299531 21.19097561 3.34196264 23.66210938 3.74023438 C25.23712734 4.0017132 26.81200312 4.26405028 28.38671875 4.52734375 C29.12307053 4.6451268 29.8594223 4.76290985 30.61808777 4.88426208 C35.77065893 5.77065893 35.77065893 5.77065893 38 8 C37.57589844 8.4125 37.15179688 8.825 36.71484375 9.25 C36.12832031 9.8275 35.54179687 10.405 34.9375 11 C34.36902344 11.556875 33.80054688 12.11375 33.21484375 12.6875 C31.32358399 14.66214864 29.52571978 16.67407089 27.734375 18.73828125 C23.409733 23.71349231 18.87928209 28.48334801 14.34179688 33.26367188 C11.06556942 36.73360086 7.90833404 40.20812144 5 44 C10.98445654 46.34452032 16.99223277 48.21634469 23.1875 49.91796875 C24.13061035 50.18007645 25.0737207 50.44218414 26.04541016 50.7122345 C29.02934962 51.54069915 32.01463845 52.36417632 35 53.1875 C37.03524781 53.75162288 39.07040502 54.31607276 41.10546875 54.88085938 C46.06927286 56.25768943 51.03429256 57.63005119 56 59 C54.295623 62.68866292 52.47380507 64.48199841 49.25 67 C44.79884227 70.54465563 40.43317675 74.15791874 36.125 77.875 C34.93374707 78.89991782 33.74234021 79.92465674 32.55078125 80.94921875 C31.96119629 81.45630371 31.37161133 81.96338867 30.76416016 82.48583984 C24.09267077 88.2119092 17.38491685 93.89179274 10.5625 99.4375 C5.69870975 103.39508188 0.94118769 107.46542446 -3.80834961 111.55834961 C-7.33298919 114.58945289 -10.89039882 117.56985316 -14.5 120.5 C-18.68083104 123.89615894 -22.79126671 127.36348112 -26.875 130.875 C-27.4637793 131.3812793 -28.05255859 131.88755859 -28.65917969 132.40917969 C-29.54331543 133.16956543 -29.54331543 133.16956543 -30.4453125 133.9453125 C-39.17380687 141.452104 -47.955039 148.8742858 -57 156 C-57.33 155.34 -57.66 154.68 -58 154 C-57.20239258 152.01074219 -57.20239258 152.01074219 -55.89453125 149.546875 C-55.41193848 148.6293042 -54.9293457 147.7117334 -54.43212891 146.76635742 C-53.89765137 145.77095947 -53.36317383 144.77556152 -52.8125 143.75 C-52.26513184 142.71657471 -51.71776367 141.68314941 -51.15380859 140.6184082 C-46.56440786 131.98058022 -41.88367961 123.39223461 -37.1796875 114.81640625 C-33.50202366 108.10449395 -29.8751226 101.36537211 -26.25 94.625 C-25.62883301 93.4702417 -25.00766602 92.3154834 -24.36767578 91.12573242 C-22.91129899 88.41741511 -21.4553703 85.70885827 -20 83 C-21.13244141 82.88213135 -22.26488281 82.7642627 -23.43164062 82.64282227 C-28.10417069 82.05606298 -32.55368275 80.94238565 -37.09375 79.71484375 C-37.92588013 79.49429825 -38.75801025 79.27375275 -39.61535645 79.04652405 C-42.24490116 78.34840484 -44.87244904 77.6430818 -47.5 76.9375 C-49.29414323 76.45980694 -51.08841296 75.98258875 -52.8828125 75.50585938 C-57.25668969 74.34272313 -61.62879235 73.17312698 -66 72 C-64.26229745 68.40654054 -62.14487214 65.22918697 -59.8125 62 C-59.3803418 61.39824951 -58.94818359 60.79649902 -58.50292969 60.17651367 C-54.02295373 53.97257198 -49.42116386 47.86009729 -44.81835938 41.74707031 C-41.0416131 36.72971781 -37.2860213 31.69833564 -33.5690918 26.63647461 C-32.40585756 25.05612511 -31.23681246 23.48003498 -30.06176758 21.90844727 C-27.21101292 18.08499206 -24.4800293 14.23991827 -21.9140625 10.21875 C-21.41156982 9.46561523 -20.90907715 8.71248047 -20.39135742 7.93652344 C-19.45433311 6.52728922 -18.55259414 5.09362306 -17.6965332 3.63378906 C-13.13159445 -3.06593241 -7.2240287 -1.20377628 0 0 Z " fill="#000000" transform="translate(413,2)"/>
<path d="M0 0 C7.31711037 7.48727573 10.61473761 15.90367222 10.9375 26.25 C10.62459898 36.28021612 7.58712879 44.46907714 0.6796875 51.9140625 C-4.09758431 56.34887755 -9.32725522 59.74898297 -14.859375 63.1640625 C-19.95182691 66.45631644 -23.17156924 70.07653348 -25.3125 75.75 C-25.6425 79.05 -25.9725 82.35 -26.3125 85.75 C-37.2025 85.75 -48.0925 85.75 -59.3125 85.75 C-59.3125 60.45155902 -59.3125 60.45155902 -50.55859375 50.8203125 C-46.97300861 47.56068964 -43.05527162 44.85937232 -39.0625 42.125 C-34.15838771 38.73506063 -30.99029755 36.23525767 -29.375 30.3125 C-29.30232185 26.16984551 -30.00737271 24.16794736 -32.3125 20.75 C-35.6664367 18.11476402 -39.18622125 18.39428632 -43.3125 18.75 C-46.94396346 20.07688088 -48.81247784 21.0775564 -51.125 24.1875 C-52.48726941 26.91683043 -52.48726941 26.91683043 -53.3125 30.75 C-64.8625 30.75 -76.4125 30.75 -88.3125 30.75 C-88.3125 18.4769313 -86.01586275 9.7725705 -77.42578125 0.7734375 C-56.96439494 -18.12018051 -21.45949189 -15.71838107 0 0 Z " fill="#000000" transform="translate(198.3125,116.25)"/>
<path d="M0 0 C4.6750491 2.66741713 7.54928676 6.38378515 9.625 11.3125 C10.3401077 17.46056878 10.34142176 23.15746336 6.625 28.3125 C1.83241376 33.2234217 -2.25182968 36.00530292 -9.1875 36.6875 C-14.75312496 36.50931615 -19.16260838 34.42411022 -23.17578125 30.59375 C-27.65218929 25.55111374 -28.7463969 21.6653275 -28.6484375 14.9453125 C-28.13301421 9.98252257 -26.35554047 6.1219938 -22.65625 2.7421875 C-15.85713607 -2.29952834 -7.86736315 -3.66061175 0 0 Z " fill="#000000" transform="translate(165.375,210.6875)"/>
</svg>
