<?xml version="1.0" encoding="UTF-8"?>
<svg version="1.1" xmlns="http://www.w3.org/2000/svg" width="200" height="200">
<path d="M0 0 C5.94 0 11.88 0 18 0 C18 5.94 18 11.88 18 18 C21.25617188 17.94779297 21.25617188 17.94779297 24.578125 17.89453125 C26.72296845 17.87101426 28.86779655 17.85286729 31.01269531 17.83520508 C32.48281473 17.82028571 33.952891 17.79994273 35.42285156 17.77368164 C55.58382392 17.42299624 72.24028789 22.77828056 87 37 C93.1904889 43.54576914 97.49823591 50.7201279 101 59 C101.34160156 59.80308594 101.68320313 60.60617188 102.03515625 61.43359375 C106.2071648 73.56152559 106.04875956 91.19560486 101 103 C100.52433594 104.12535156 100.04867187 105.25070313 99.55859375 106.41015625 C95.95016341 114.4422069 91.32527321 120.84118135 85 127 C84.40960938 127.62261719 83.81921875 128.24523437 83.2109375 128.88671875 C79.08579105 132.93008917 74.40316019 135.61433712 69.3125 138.25 C68.68980225 138.5795166 68.06710449 138.9090332 67.42553711 139.24853516 C58.00580675 143.89014142 48.37027892 145.26310578 37.96679688 145.00756836 C24.32526891 144.69725791 24.32526891 144.69725791 13 151.4375 C11.40954014 153.04912751 9.89249394 154.6915525 8.41162109 156.40429688 C6.22970307 158.87074727 3.77350071 161.00452029 1.3125 163.1875 C0.44367188 163.98414063 -0.42515625 164.78078125 -1.3203125 165.6015625 C-12.8597786 175.9298893 -12.8597786 175.9298893 -17 178 C-19.19812167 157.17823213 -19.19812167 157.17823213 -15.86767578 150.84765625 C-12.84120284 147.27063898 -9.02693124 144.84874012 -5.08007812 142.38623047 C-1.3238357 139.8829506 1.95263355 136.81481241 5.3125 133.8125 C6.5778968 132.71307996 7.84469768 131.61527264 9.11328125 130.51953125 C11.09709407 128.80305982 11.09709407 128.80305982 13 127 C15.22299492 126.87743836 17.44962687 126.82011783 19.67578125 126.7890625 C21.07618238 126.76093488 22.4765728 126.73227025 23.87695312 126.703125 C26.07721974 126.66231184 28.27729914 126.62542865 30.4777832 126.59863281 C46.5127623 126.38656377 60.6668532 124.03705186 72.875 112.6875 C81.92806956 102.7732848 85.64751648 91.44951865 85.28515625 78.13671875 C84.14477585 65.59253437 77.58397373 54.32728444 67.97265625 46.30859375 C58.6207837 39.56104014 47.57576358 36.90504514 36.17529297 36.83886719 C35.52069595 36.83390228 34.86609894 36.82893738 34.19166565 36.82382202 C32.04182857 36.80930748 29.89206538 36.80241486 27.7421875 36.796875 C27.00142094 36.79404762 26.26065437 36.79122025 25.49744034 36.78830719 C21.57381082 36.77335464 17.65021767 36.76410154 13.7265625 36.75976562 C9.70560951 36.75430031 5.68499844 36.73030233 1.66415215 36.70179367 C-1.45542318 36.68301957 -4.57491874 36.67795382 -7.69454575 36.67642975 C-9.17508682 36.67343366 -10.65562754 36.6655103 -12.13611221 36.65224457 C-27.81809745 36.52180548 -42.82593148 39.06987481 -54.8125 50 C-64.58467001 60.44856794 -67.49807237 72.58699805 -67.28125 86.5 C-67.05557945 91.95220056 -65.70494225 96.26635106 -63 101 C-62.40445313 102.08861328 -62.40445313 102.08861328 -61.796875 103.19921875 C-55.59871981 113.81061734 -45.51076164 121.20370212 -33.78125 124.65234375 C-28.2407034 125.98870798 -22.67185233 126.52068854 -17 127 C-17 132.94 -17 138.88 -17 145 C-34.82865509 145.81039341 -50.68736683 141.51856512 -64.375 129.5625 C-65.93368988 128.05911847 -67.47683793 126.53936592 -69 125 C-69.62390625 124.40960938 -70.2478125 123.81921875 -70.890625 123.2109375 C-75.01631807 118.99232342 -77.66373078 114.21899866 -80.3125 109 C-80.65039551 108.33540771 -80.98829102 107.67081543 -81.33642578 106.98608398 C-87.72413984 93.83062732 -88.4414435 76.69581843 -84.3125 62.6875 C-83.59115455 60.77229014 -82.82341049 58.87359633 -82 57 C-81.45666016 55.68902344 -81.45666016 55.68902344 -80.90234375 54.3515625 C-74.05546157 39.26521194 -61.21610728 28.11482057 -46.06005859 21.75805664 C-35.80639654 17.9849326 -26.0193233 17.62010422 -15.25 17.8125 C-13.76303455 17.82759033 -12.2760541 17.84127096 -10.7890625 17.85351562 C-7.19202082 17.88355773 -3.59712154 17.94232644 0 18 C0 12.06 0 6.12 0 0 Z " fill="#000000" transform="translate(91,6)"/>
<path d="M0 0 C3.43362902 1.6389314 5.39258243 4.04925946 7.4375 7.25 C8.39663178 11.93908868 8.38423503 16.67196836 5.8828125 20.87890625 C4.12643074 23.03541048 2.50365058 24.74817471 0 26 C-5.33842242 26.53209766 -9.69597371 26.64057432 -14.5625 24.25 C-17.48777792 21.54974346 -18.77461164 19.58820171 -19.3359375 15.6328125 C-19.42500354 9.91477243 -18.99386657 6.43762952 -15 2 C-10.34942235 -0.90912758 -5.30289096 -0.75207426 0 0 Z " fill="#000000" transform="translate(136,76)"/>
<path d="M0 0 C4.16884941 2.04785585 6.28187228 3.73164682 8 8 C8.7121481 13.01815989 8.52912753 16.94174495 6.25 21.5 C3.46859064 24.59045484 1.53548229 25.77965133 -2.5859375 26.37109375 C-11.04733486 26.57255559 -11.04733486 26.57255559 -14.5625 23.8125 C-18.16510949 19.6556429 -19.2297579 17.0149364 -18.9375 11.5625 C-18.27243495 6.70428091 -16.47378172 4.38905534 -13 1 C-9.05322303 -0.97338848 -4.30160477 -0.44290148 0 0 Z " fill="#000000" transform="translate(75,76)"/>
</svg>
