<?xml version="1.0" standalone="no"?>
<!DOCTYPE svg PUBLIC "-//W3C//DTD SVG 20010904//EN"
 "http://www.w3.org/TR/2001/REC-SVG-20010904/DTD/svg10.dtd">
<svg version="1.0" xmlns="http://www.w3.org/2000/svg"
 width="225.000000pt" height="225.000000pt" viewBox="0 0 225.000000 225.000000"
 preserveAspectRatio="xMidYMid meet">

<g transform="translate(0.000000,225.000000) scale(0.100000,-0.100000)"
fill="#000000" stroke="none">
<path d="M572 1927 c-192 -70 -195 -344 -5 -424 41 -17 125 -17 166 0 159 67
192 277 60 386 -60 50 -147 64 -221 38z"/>
<path d="M1648 1523 l-3 -78 -132 -3 -133 -3 0 -104 0 -105 425 0 425 0 0 105
0 104 -132 3 -133 3 -3 78 -3 77 -154 0 -154 0 -3 -77z m252 -33 l0 -51 -92 3
-93 3 -3 48 -3 47 95 0 96 0 0 -50z"/>
<path d="M262 1411 c-103 -38 -194 -126 -227 -222 -20 -55 -22 -782 -3 -824
23 -50 101 -71 147 -39 48 34 51 59 51 419 l0 335 35 0 35 0 0 -385 0 -385
340 0 340 0 0 385 0 385 40 0 40 0 0 -246 0 -246 29 -29 29 -29 301 0 c297 0
300 0 326 23 56 49 48 138 -15 169 -30 16 -65 18 -252 18 l-217 0 -3 228 c-3
214 -4 230 -26 274 -31 63 -96 126 -162 157 l-55 26 -350 2 c-324 3 -354 1
-403 -16z"/>
<path d="M1380 1020 l0 -160 425 0 425 0 0 160 0 160 -80 0 -80 0 0 -31 0 -30
-52 3 c-49 3 -53 5 -56 31 l-3 27 -154 0 -154 0 -3 -27 c-3 -26 -7 -28 -55
-31 l-53 -3 0 30 0 31 -80 0 -80 0 0 -160z"/>
</g>
</svg>
