<?xml version="1.0" encoding="UTF-8"?>
<svg version="1.1" xmlns="http://www.w3.org/2000/svg" width="200" height="200">
<path d="M0 0 C1.07507813 -0.00128906 2.15015625 -0.00257813 3.2578125 -0.00390625 C4.38960937 -0.00003906 5.52140625 0.00382813 6.6875 0.0078125 C7.81929687 0.00394531 8.95109375 0.00007812 10.1171875 -0.00390625 C11.19226563 -0.00261719 12.26734375 -0.00132812 13.375 0 C14.36886719 0.00112793 15.36273438 0.00225586 16.38671875 0.00341797 C18.6875 0.1328125 18.6875 0.1328125 19.6875 1.1328125 C20.05510731 3.46099214 20.38991581 5.794651 20.6875 8.1328125 C23.03283951 8.90237386 23.03283951 8.90237386 25.6875 9.1328125 C26.161875 8.6378125 26.63625 8.1428125 27.125 7.6328125 C28.6875 6.1328125 28.6875 6.1328125 31.35546875 6.1484375 C35.92467578 7.49830874 38.30357833 10.01329394 41.5625 13.3828125 C42.45195312 14.24326172 42.45195312 14.24326172 43.359375 15.12109375 C47.55749487 19.36757906 47.55749487 19.36757906 48.16796875 22.9609375 C47.6875 25.1328125 47.6875 25.1328125 46.125 26.6328125 C45.650625 27.1278125 45.17625 27.6228125 44.6875 28.1328125 C44.91793864 30.78747299 44.91793864 30.78747299 45.6875 33.1328125 C46.821875 33.2771875 47.95625 33.4215625 49.125 33.5703125 C52.6875 34.1328125 52.6875 34.1328125 53.6875 35.1328125 C53.78696453 36.90140443 53.81830217 38.67392701 53.8203125 40.4453125 C53.82160156 41.52039062 53.82289063 42.59546875 53.82421875 43.703125 C53.82035156 44.83492187 53.81648438 45.96671875 53.8125 47.1328125 C53.81636719 48.26460937 53.82023437 49.39640625 53.82421875 50.5625 C53.82292969 51.63757812 53.82164062 52.71265625 53.8203125 53.8203125 C53.81918457 54.81417969 53.81805664 55.80804688 53.81689453 56.83203125 C53.6875 59.1328125 53.6875 59.1328125 52.6875 60.1328125 C50.35452567 60.17374187 48.02044775 60.17522973 45.6875 60.1328125 C44.92033149 62.98359341 44.92033149 62.98359341 44.6875 66.1328125 C46.10416667 67.71614583 46.10416667 67.71614583 47.6875 69.1328125 C48.203125 71.265625 48.203125 71.265625 47.6875 74.1328125 C45.7311066 76.85000413 43.39850718 79.11868866 41 81.4453125 C40.37416016 82.09048828 39.74832031 82.73566406 39.10351562 83.40039062 C34.46172196 87.99357912 34.46172196 87.99357912 30.8203125 88.6484375 C28.6875 88.1328125 28.6875 88.1328125 27.25 86.5703125 C26.734375 86.0959375 26.21875 85.6215625 25.6875 85.1328125 C22.53828091 85.36564399 22.53828091 85.36564399 19.6875 86.1328125 C19.708125 87.2671875 19.72875 88.4015625 19.75 89.5703125 C19.6875 93.1328125 19.6875 93.1328125 18.6875 94.1328125 C16.91890807 94.23227703 15.14638549 94.26361467 13.375 94.265625 C12.29992187 94.26691406 11.22484375 94.26820312 10.1171875 94.26953125 C8.98539063 94.26566406 7.85359375 94.26179688 6.6875 94.2578125 C5.55570313 94.26167969 4.42390625 94.26554687 3.2578125 94.26953125 C2.18273437 94.26824219 1.10765625 94.26695313 0 94.265625 C-0.99386719 94.26449707 -1.98773438 94.26336914 -3.01171875 94.26220703 C-5.3125 94.1328125 -5.3125 94.1328125 -6.3125 93.1328125 C-6.35342937 90.79983817 -6.35491723 88.46576025 -6.3125 86.1328125 C-9.16328091 85.36564399 -9.16328091 85.36564399 -12.3125 85.1328125 C-13.89583333 86.54947917 -13.89583333 86.54947917 -15.3125 88.1328125 C-17.4453125 88.6484375 -17.4453125 88.6484375 -20.3125 88.1328125 C-23.02969163 86.1764191 -25.29837616 83.84381968 -27.625 81.4453125 C-28.27017578 80.81947266 -28.91535156 80.19363281 -29.58007812 79.54882812 C-34.17326662 74.90703446 -34.17326662 74.90703446 -34.828125 71.265625 C-34.3125 69.1328125 -34.3125 69.1328125 -32.75 67.6953125 C-32.0384375 66.921875 -32.0384375 66.921875 -31.3125 66.1328125 C-31.54533149 62.98359341 -31.54533149 62.98359341 -32.3125 60.1328125 C-34.0140625 60.16375 -34.0140625 60.16375 -35.75 60.1953125 C-39.3125 60.1328125 -39.3125 60.1328125 -40.3125 59.1328125 C-40.41196453 57.36422057 -40.44330217 55.59169799 -40.4453125 53.8203125 C-40.44660156 52.74523438 -40.44789062 51.67015625 -40.44921875 50.5625 C-40.44341797 48.86480469 -40.44341797 48.86480469 -40.4375 47.1328125 C-40.44136719 46.00101563 -40.44523437 44.86921875 -40.44921875 43.703125 C-40.44792969 42.62804688 -40.44664063 41.55296875 -40.4453125 40.4453125 C-40.44418457 39.45144531 -40.44305664 38.45757812 -40.44189453 37.43359375 C-40.3125 35.1328125 -40.3125 35.1328125 -39.3125 34.1328125 C-36.97952567 34.09188313 -34.64544775 34.09039527 -32.3125 34.1328125 C-31.54533149 31.28203159 -31.54533149 31.28203159 -31.3125 28.1328125 C-32.72916667 26.54947917 -32.72916667 26.54947917 -34.3125 25.1328125 C-34.828125 23 -34.828125 23 -34.3125 20.1328125 C-32.3561066 17.41562087 -30.02350718 15.14693634 -27.625 12.8203125 C-26.99916016 12.17513672 -26.37332031 11.52996094 -25.72851562 10.86523438 C-21.08695662 6.27227809 -21.08695662 6.27227809 -17.44921875 5.6171875 C-15.3125 6.1328125 -15.3125 6.1328125 -13.8125 7.6953125 C-13.3175 8.1696875 -12.8225 8.6440625 -12.3125 9.1328125 C-9.65783951 8.90237386 -9.65783951 8.90237386 -7.3125 8.1328125 C-7.168125 6.9984375 -7.02375 5.8640625 -6.875 4.6953125 C-6.02823967 -0.66750291 -5.05941535 0.00574188 0 0 Z M0.6875 7.1328125 C0.543125 8.0403125 0.39875 8.9478125 0.25 9.8828125 C-1.76554973 14.07515593 -3.77440434 14.8717478 -7.9921875 16.51953125 C-11.04957572 17.32762881 -13.29489428 16.99498556 -16.3125 16.1328125 C-19.27101033 15.8163475 -19.27101033 15.8163475 -20.91796875 17.4453125 C-21.70107422 18.280625 -21.70107422 18.280625 -22.5 19.1328125 C-23.29470703 19.968125 -23.29470703 19.968125 -24.10546875 20.8203125 C-24.50378906 21.2534375 -24.90210937 21.6865625 -25.3125 22.1328125 C-24.961875 22.8340625 -24.61125 23.5353125 -24.25 24.2578125 C-22.76286243 28.81836772 -23.88929418 31.97456499 -25.5 36.3828125 C-27.7366582 39.77636287 -29.42036659 40.26789397 -33.3125 41.1328125 C-33.3125 45.0928125 -33.3125 49.0528125 -33.3125 53.1328125 C-32.405 53.2771875 -31.4975 53.4215625 -30.5625 53.5703125 C-26.355911 55.59271106 -25.5740234 57.64576053 -23.9296875 61.87890625 C-23.16744127 64.66255231 -23.28268098 66.43943969 -24.3125 69.1328125 C-24.6425 70.1228125 -24.9725 71.1128125 -25.3125 72.1328125 C-21.8475 75.5978125 -21.8475 75.5978125 -18.3125 79.1328125 C-16.8275 78.6378125 -16.8275 78.6378125 -15.3125 78.1328125 C-10.06409857 77.61826334 -6.56694778 78.58680708 -1.9140625 80.76953125 C-0.3125 82.1328125 -0.3125 82.1328125 0.6875 87.1328125 C4.6475 87.1328125 8.6075 87.1328125 12.6875 87.1328125 C12.873125 86.2046875 13.05875 85.2765625 13.25 84.3203125 C14.6875 81.1328125 14.6875 81.1328125 17.875 79.2578125 C21.74459589 78.11596453 24.68105573 77.90603264 28.6875 78.1328125 C32.57345704 78.57853765 32.57345704 78.57853765 34.390625 76.6015625 C35.15632813 75.62703125 35.15632813 75.62703125 35.9375 74.6328125 C36.45828125 73.983125 36.9790625 73.3334375 37.515625 72.6640625 C37.90234375 72.15875 38.2890625 71.6534375 38.6875 71.1328125 C38.35363281 70.53210938 38.01976562 69.93140625 37.67578125 69.3125 C35.85263453 65.29148867 37.42522079 61.85062928 38.875 57.8828125 C41.1116582 54.48926213 42.79536659 53.99773103 46.6875 53.1328125 C46.6875 49.1728125 46.6875 45.2128125 46.6875 41.1328125 C45.78 40.9884375 44.8725 40.8440625 43.9375 40.6953125 C39.72891038 38.67195211 38.94936684 36.61621747 37.30078125 32.3828125 C36.54543582 29.61160887 36.76027582 27.83721636 37.6875 25.1328125 C38.13322515 21.24685546 38.13322515 21.24685546 36.15625 19.4296875 C35.5065625 18.91921875 34.856875 18.40875 34.1875 17.8828125 C33.5378125 17.36203125 32.888125 16.84125 32.21875 16.3046875 C31.7134375 15.91796875 31.208125 15.53125 30.6875 15.1328125 C30.08679688 15.46667969 29.48609375 15.80054688 28.8671875 16.14453125 C24.84617617 17.96767797 21.40531678 16.39509171 17.4375 14.9453125 C14.04394963 12.7086543 13.55241853 11.02494591 12.6875 7.1328125 C8.7275 7.1328125 4.7675 7.1328125 0.6875 7.1328125 Z " fill="#000000" transform="translate(93.3125,5.8671875)"/>
<path d="M0 0 C4.33612708 2.26682566 6.91961457 4.90283956 8.92578125 9.31640625 C9.97550621 16.48050858 9.10679003 21.43686265 4.92578125 27.31640625 C5.62703125 27.48140625 6.32828125 27.64640625 7.05078125 27.81640625 C12.44368434 30.63009482 15.59372302 35.87170741 17.80078125 41.44140625 C19.57022792 47.38466535 20.7582576 56.65145355 17.92578125 62.31640625 C10.96574678 62.34167463 4.00572405 62.35923847 -2.9543457 62.37133789 C-5.32414187 62.37637966 -7.6939349 62.3832129 -10.0637207 62.3918457 C-13.46175914 62.40391815 -16.8597566 62.40963596 -20.2578125 62.4140625 C-21.3244664 62.41922379 -22.3911203 62.42438507 -23.49009705 62.42970276 C-24.47103836 62.42977829 -25.45197968 62.42985382 -26.46264648 62.42993164 C-27.76503517 62.43326256 -27.76503517 62.43326256 -29.09373474 62.43666077 C-31.07421875 62.31640625 -31.07421875 62.31640625 -32.07421875 61.31640625 C-33.36641114 41.14973159 -33.36641114 41.14973159 -28.07421875 34.31640625 C-25.56183459 31.75607583 -22.93595889 29.4766033 -20.07421875 27.31640625 C-20.38359375 26.55328125 -20.69296875 25.79015625 -21.01171875 25.00390625 C-23.33748719 19.12108021 -24.06758447 14.13094245 -21.94921875 8.12890625 C-16.73100418 0.30158439 -9.19956926 -3.03187311 0 0 Z M-14.07421875 9.31640625 C-15.73780956 12.63894736 -15.73780956 12.63894736 -16.07421875 16.31640625 C-14.58243952 19.96297769 -12.59903108 22.50364562 -9.07421875 24.31640625 C-5.09027324 24.31640625 -3.38144356 23.55016426 -0.19921875 21.12890625 C2.12418017 18.4879617 2.12418017 18.4879617 2.48828125 15.31640625 C1.77489915 11.51170174 0.80959704 9.90444606 -2.07421875 7.31640625 C-7.03016166 5.8746774 -10.17584055 5.75217475 -14.07421875 9.31640625 Z M-20.65234375 37.03515625 C-25.361062 43.42169364 -25.07421875 46.55143509 -25.07421875 55.31640625 C-12.86421875 55.31640625 -0.65421875 55.31640625 11.92578125 55.31640625 C11.32176491 43.766433 11.32176491 43.766433 5.05078125 35.56640625 C-3.19378784 29.63031651 -13.4128986 29.15061203 -20.65234375 37.03515625 Z " fill="#000000" transform="translate(38.07421875,131.68359375)"/>
<path d="M0 0 C4.42484878 2.21242439 7.19476657 4.94799616 10 9 C11.47559209 13.42677627 11.97164471 17.74272932 10.10546875 22.078125 C9.13822946 23.75968588 8.07606103 25.38590846 7 27 C7.60328125 27.47308594 8.2065625 27.94617188 8.828125 28.43359375 C14.30703182 32.96694729 18.58275357 36.85631189 20 44 C20.46478449 49.99571995 20.38426723 56.00291141 20 62 C19 63 19 63 17.01951599 63.12025452 C16.15125687 63.11803391 15.28299774 63.11581329 14.38842773 63.11352539 C13.40748642 63.11344986 12.4265451 63.11337433 11.4158783 63.11329651 C10.3492244 63.10813522 9.2825705 63.10297394 8.18359375 63.09765625 C6.55430687 63.09553383 6.55430687 63.09553383 4.8921051 63.09336853 C1.40720925 63.08775048 -2.07762342 63.07519492 -5.5625 63.0625 C-7.91861887 63.05748733 -10.27473874 63.05292402 -12.63085938 63.04882812 C-18.42059464 63.03777519 -24.21029281 63.02101951 -30 63 C-32.66782329 57.66435342 -31.63911788 48.67109591 -30.28125 42.99609375 C-28.01177401 37.00211483 -25.13507016 31.53270097 -19.1875 28.625 C-18.465625 28.41875 -17.74375 28.2125 -17 28 C-17.66 27.071875 -18.32 26.14375 -19 25.1875 C-21.77216414 20.31641158 -21.82358826 15.46039017 -21 10 C-16.47136382 0.94272763 -9.59182798 -1.07739721 0 0 Z M-13 11 C-14.42662219 13.85324437 -14.31033868 15.83454549 -14 19 C-11.94541925 22.69824535 -10.6568506 23.7810498 -6.625 25.125 C-2.84725371 25.2991919 -2.84725371 25.2991919 0.375 22.875 C3.56963486 19.42930468 3.56963486 19.42930468 4 15 C2.80887905 11.80278061 1.90416092 9.66305134 -0.875 7.625 C-6.35348475 6.01368096 -8.86482417 7.09455616 -13 11 Z M-19.875 38.75 C-23.65243349 44.52725122 -24 49.11758615 -24 56 C-11.79 56 0.42 56 13 56 C13.24580117 46.09643016 13.24580117 46.09643016 9 38 C4.21915885 33.63204967 -0.20299288 31.61330779 -6.8125 31.72265625 C-12.20520372 32.40637404 -16.01910089 35.06174868 -19.875 38.75 Z " fill="#000000" transform="translate(174,131)"/>
<path d="M0 0 C4.36563955 3.40519885 6.65875906 6.44779007 7.50390625 11.8671875 C7.78840609 17.90592605 6.55623817 21.50509513 3.125 26.4375 C3.71023437 26.68886719 4.29546875 26.94023437 4.8984375 27.19921875 C7.4039023 28.59260882 8.87487438 30.08988832 10.75 32.25 C11.34039062 32.91644531 11.93078125 33.58289063 12.5390625 34.26953125 C16.51723073 39.70766762 16.4051369 44.6834147 16.3125 51.1875 C16.31185547 52.06277344 16.31121094 52.93804687 16.31054688 53.83984375 C16.26549693 60.29700307 16.26549693 60.29700307 15.125 61.4375 C13.62629952 61.53581146 12.12301461 61.56548456 10.62109375 61.56689453 C9.18455444 61.57162277 9.18455444 61.57162277 7.71899414 61.57644653 C6.67735107 61.5744223 5.63570801 61.57239807 4.5625 61.5703125 C3.50087646 61.57126923 2.43925293 61.57222595 1.34545898 61.57321167 C-0.90413472 61.57389364 -3.15373037 61.57203819 -5.40332031 61.56787109 C-8.86007071 61.5625231 -12.31669117 61.56781554 -15.7734375 61.57421875 C-17.95312529 61.57355797 -20.132813 61.57227682 -22.3125 61.5703125 C-23.35414307 61.57233673 -24.39578613 61.57436096 -25.46899414 61.57644653 C-26.42668701 61.57329437 -27.38437988 61.57014221 -28.37109375 61.56689453 C-29.21857178 61.56609894 -30.0660498 61.56530334 -30.93920898 61.56448364 C-32.875 61.4375 -32.875 61.4375 -33.875 60.4375 C-34.05703793 57.40253974 -34.15342499 54.41221907 -34.1875 51.375 C-34.21650391 50.54033203 -34.24550781 49.70566406 -34.27539062 48.84570312 C-34.34815365 41.6645527 -32.50284922 36.71953954 -28.0234375 31.125 C-27.43820313 30.568125 -26.85296875 30.01125 -26.25 29.4375 C-25.65960938 28.86 -25.06921875 28.2825 -24.4609375 27.6875 C-22.875 26.4375 -22.875 26.4375 -20.875 26.4375 C-21.535 25.48875 -22.195 24.54 -22.875 23.5625 C-25.48858482 18.92549468 -25.81027979 14.64253533 -24.875 9.4375 C-23.1487109 5.08872064 -20.93359566 2.22529212 -17.1875 -0.5625 C-11.40314658 -2.3087199 -5.53805928 -2.76307474 0 0 Z M-16.875 9.4375 C-18.01509771 13.35658586 -18.28388632 15.46908504 -16.6875 19.25 C-14.7586966 21.57786617 -13.77210361 22.60975611 -10.875 23.4375 C-7.35032271 23.29063845 -5.4224357 22.83698011 -2.5625 20.75 C-0.44862511 17.85320848 0.05188732 16.02002131 0.125 12.4375 C-1.47911848 8.90843933 -2.61659362 7.60977092 -5.875 5.4375 C-10.90962073 4.78081034 -13.46807241 5.64120926 -16.875 9.4375 Z M-23.25 36.9375 C-27.62855318 43.67373566 -26.875 45.01465855 -26.875 54.4375 C-14.995 54.4375 -3.115 54.4375 9.125 54.4375 C9.42599632 43.58300808 9.42599632 43.58300808 4.125 35.4375 C-0.69023557 31.68161625 -4.51901857 30.06542753 -10.68359375 30.15625 C-15.82041378 30.81552102 -19.73257587 33.23494829 -23.25 36.9375 Z " fill="#000000" transform="translate(108.875,132.5625)"/>
<path d="M0 0 C6.98264887 4.1613766 12.05767795 10.19947216 14.4375 18 C16.22216793 27.03488142 15.03883983 34.16894032 10.6875 42.25 C5.40772774 48.70305498 -1.02945113 53.98416085 -9.5625 55 C-18.26736829 55.58032455 -25.66521629 53.51782697 -32.5625 48 C-39.0590149 41.61494492 -42.03413496 34.95253146 -42.62109375 25.8359375 C-42.45290105 17.69541069 -39.28428507 10.7463949 -33.5625 5 C-24.0411645 -2.47058631 -11.42644525 -5.25475414 0 0 Z M-31.3359375 14.21875 C-35.27797453 19.94349167 -35.14819313 25.18216587 -34.5625 32 C-32.4329918 38.16436584 -27.92938339 42.42207774 -22.5625 46 C-16.68231742 47.96006086 -9.95979157 47.82815527 -4.125 45.8125 C0.93097369 42.23632349 5.45384584 37.95096248 7.4375 32 C8.15692403 25.06269683 8.15812102 19.42900765 3.9296875 13.68359375 C-0.20372551 9.01997855 -4.44872915 5.46342306 -10.81640625 4.74609375 C-19.93160341 4.31468747 -25.62863639 7.20418998 -31.3359375 14.21875 Z " fill="#000000" transform="translate(113.5625,27)"/>
<path d="M0 0 C5.63746742 0.5176071 9.66193093 3.69128728 14.25 6.75 C15.07757813 7.2759375 15.90515625 7.801875 16.7578125 8.34375 C17.54414062 8.86453125 18.33046875 9.3853125 19.140625 9.921875 C19.85766602 10.39206055 20.57470703 10.86224609 21.31347656 11.34667969 C23.45750437 13.44849733 23.67108858 15.06710304 24 18 C19.2344209 21.87129759 14.36437556 25.5371689 9.25 28.9375 C8.36828125 29.52402344 7.4865625 30.11054687 6.578125 30.71484375 C3.78624983 32.10655122 2.07440299 32.27094559 -1 32 C-3.28831108 27.42337784 -2.18502705 21.02502708 -2.1875 16 C-2.19974609 14.6903125 -2.21199219 13.380625 -2.22460938 12.03125 C-2.22654297 10.7834375 -2.22847656 9.535625 -2.23046875 8.25 C-2.23457764 7.10015625 -2.23868652 5.9503125 -2.24291992 4.765625 C-2 2 -2 2 0 0 Z M5 11 C5 14.63 5 18.26 5 22 C6.98 20.824375 6.98 20.824375 9 19.625 C9.7425 19.18414062 10.485 18.74328125 11.25 18.2890625 C11.8275 17.86367188 12.405 17.43828125 13 17 C13 16.34 13 15.68 13 15 C9.36676311 12.03764305 9.36676311 12.03764305 5 11 Z " fill="#000000" transform="translate(92,37)"/>
<path d="M0 0 C2.64 0 5.28 0 8 0 C8 2.31 8 4.62 8 7 C5.36 7 2.72 7 0 7 C0 4.69 0 2.38 0 0 Z " fill="#000000" transform="translate(96,118)"/>
<path d="M0 0 C2.64 0 5.28 0 8 0 C8 2.31 8 4.62 8 7 C5.36 7 2.72 7 0 7 C0 4.69 0 2.38 0 0 Z " fill="#000000" transform="translate(96,106)"/>
<path d="M0 0 C2.31 0 4.62 0 7 0 C7 2.31 7 4.62 7 7 C4.69 7 2.38 7 0 7 C0 4.69 0 2.38 0 0 Z " fill="#000000" transform="translate(165,112)"/>
<path d="M0 0 C2.31 0 4.62 0 7 0 C7 2.31 7 4.62 7 7 C4.69 7 2.38 7 0 7 C0 4.69 0 2.38 0 0 Z " fill="#000000" transform="translate(28,112)"/>
<path d="M0 0 C2.31 0 4.62 0 7 0 C7 2.31 7 4.62 7 7 C4.69 7 2.38 7 0 7 C0 4.69 0 2.38 0 0 Z " fill="#000000" transform="translate(165,100)"/>
<path d="M0 0 C2.31 0 4.62 0 7 0 C7 2.31 7 4.62 7 7 C4.69 7 2.38 7 0 7 C0 4.69 0 2.38 0 0 Z " fill="#000000" transform="translate(28,100)"/>
<path d="M0 0 C2.31 0 4.62 0 7 0 C7 2.31 7 4.62 7 7 C4.69 7 2.38 7 0 7 C0 4.69 0 2.38 0 0 Z " fill="#000000" transform="translate(165,87)"/>
<path d="M0 0 C2.31 0 4.62 0 7 0 C7 2.31 7 4.62 7 7 C4.69 7 2.38 7 0 7 C0 4.69 0 2.38 0 0 Z " fill="#000000" transform="translate(28,87)"/>
<path d="M0 0 C2.31 0 4.62 0 7 0 C7 2.31 7 4.62 7 7 C4.69 7 2.38 7 0 7 C0 4.69 0 2.38 0 0 Z " fill="#000000" transform="translate(165,75)"/>
<path d="M0 0 C2.31 0 4.62 0 7 0 C7 2.31 7 4.62 7 7 C4.69 7 2.38 7 0 7 C0 4.69 0 2.38 0 0 Z " fill="#000000" transform="translate(28,75)"/>
<path d="M0 0 C2.31 0 4.62 0 7 0 C7 2.31 7 4.62 7 7 C4.69 7 2.38 7 0 7 C0 4.69 0 2.38 0 0 Z " fill="#000000" transform="translate(165,62)"/>
<path d="M0 0 C2.31 0 4.62 0 7 0 C7 2.31 7 4.62 7 7 C4.69 7 2.38 7 0 7 C0 4.69 0 2.38 0 0 Z " fill="#000000" transform="translate(28,62)"/>
<path d="M0 0 C2.31 0 4.62 0 7 0 C7 2.31 7 4.62 7 7 C4.69 7 2.38 7 0 7 C0 4.69 0 2.38 0 0 Z " fill="#000000" transform="translate(165,50)"/>
<path d="M0 0 C2.31 0 4.62 0 7 0 C7 2.31 7 4.62 7 7 C4.69 7 2.38 7 0 7 C0 4.69 0 2.38 0 0 Z " fill="#000000" transform="translate(153,50)"/>
<path d="M0 0 C2.31 0 4.62 0 7 0 C7 2.31 7 4.62 7 7 C4.69 7 2.38 7 0 7 C0 4.69 0 2.38 0 0 Z " fill="#000000" transform="translate(40,50)"/>
<path d="M0 0 C2.31 0 4.62 0 7 0 C7 2.31 7 4.62 7 7 C4.69 7 2.38 7 0 7 C0 4.69 0 2.38 0 0 Z " fill="#000000" transform="translate(28,50)"/>
</svg>
